Coordinates
version=1
nRows=11
nColumns=63
inDegrees=yes

Units are S.I. units (second, meters, Newtons, ...)
If the header above contains a line with 'inDegrees', this indicates whether rotational values are in degrees (yes) or radians (no).

endheader
time	pelvis_tilt	pelvis_list	pelvis_rotation	pelvis_tx	pelvis_ty	pelvis_tz	hip_flexion_r	hip_adduction_r	hip_rotation_r	knee_angle_r	knee_angle_r_beta	ankle_angle_r	subtalar_angle_r	mtp_angle_r	hip_flexion_l	hip_adduction_l	hip_rotation_l	knee_angle_l	knee_angle_l_beta	ankle_angle_l	subtalar_angle_l	mtp_angle_l	L5_S1_Flex_Ext	L5_S1_Lat_Bending	L5_S1_axial_rotation	L4_L5_Flex_Ext	L4_L5_Lat_Bending	L4_L5_axial_rotation	L3_L4_Flex_Ext	L3_L4_Lat_Bending	L3_L4_axial_rotation	L2_L3_Flex_Ext	L2_L3_Lat_Bending	L2_L3_axial_rotation	L1_L2_Flex_Ext	L1_L2_Lat_Bending	L1_L2_axial_rotation	L1_T12_Flex_Ext	L1_T12_Lat_Bending	L1_T12_axial_rotation	Abs_r3	Abs_r2	Abs_r1	Abs_t1	Abs_t2	neck_flexion	neck_bending	neck_rotation	arm_flex_r	arm_add_r	arm_rot_r	elbow_flex_r	pro_sup_r	wrist_flex_r	wrist_dev_r	arm_flex_l	arm_add_l	arm_rot_l	elbow_flex_l	pro_sup_l	wrist_flex_l	wrist_dev_l
      5.30000000	      0.72623624	     -2.60916748	     86.35101128	      0.25883240	      0.93453571	      0.62650014	     -2.83075519	      1.71491355	      5.54265315	      2.86037249	      0.04992292	     15.30756678	    -13.74060800	      0.00000000	     -3.96802151	     -1.71514669	     -3.07471289	      0.98563980	      0.01720266	     25.42159620	     -0.63663167	      0.00000000	     -0.06366720	     -0.01614772	     -0.09668542	     -0.11823636	     -0.02147646	     -0.10272826	     -0.10459884	     -0.03926156	     -0.10272826	     -0.07276524	     -0.03926156	     -0.08459974	     -0.05912136	     -0.03292842	     -0.07855690	     -0.03637944	     -0.02501281	     -0.07251407	     -0.45476844	     -0.18266619	     -0.53773531	      0.00000000	      0.00000000	     11.33220637	      7.09701059	      5.89052229	     38.72082114	      4.19172973	     12.48923387	     94.12994811	     85.75722159	     -6.74932964	     16.96121417	     27.31812815	      0.44814741	      6.90469902	    100.98582621	     81.60284238	    -14.26351635	     14.58488399
      5.31666667	      0.85116948	     -2.63316714	     86.71029332	      0.25764108	      0.93464425	      0.62554748	     -2.91000610	      1.79898867	      5.11107758	      2.73888218	      0.04780251	     15.72084486	    -13.28446897	      0.00000000	     -3.96077444	     -1.82068829	     -2.84017764	      0.96906776	      0.01691342	     25.46802464	     -0.63517050	      0.00000000	     -0.05974049	      0.01561571	     -0.22441731	     -0.11094406	      0.02076889	     -0.23844339	     -0.09814764	      0.03796804	     -0.23844339	     -0.06827740	      0.03796804	     -0.19636515	     -0.05547501	      0.03184355	     -0.18233906	     -0.03413571	      0.02418873	     -0.16831298	     -0.42672032	      0.17664803	     -1.24814175	      0.00000000	      0.00000000	     11.38841955	      7.12969408	      7.13221135	     39.55157110	      4.81881443	     12.69164673	     93.19007832	     85.91983949	     -6.09971519	     19.15879702	     26.81579530	     -0.03946602	      7.16681072	    101.05137432	     79.23389264	    -14.84978103	     15.66405804
      5.33333333	      1.01767281	     -2.60464228	     86.90353191	      0.25656449	      0.93477335	      0.62473659	     -2.99586251	      1.91739845	      4.79255732	      2.67399430	      0.04667000	     16.05417901	    -12.77453536	      0.00000000	     -4.04299011	     -1.94448649	     -2.68914304	      0.92097689	      0.01607408	     25.46675356	     -0.78483658	      0.00000000	     -0.06267215	      0.05684736	     -0.29135042	     -0.11638845	      0.07560699	     -0.30955982	     -0.10296408	      0.13821867	     -0.30955982	     -0.07162800	      0.13821867	     -0.25493162	     -0.05819736	      0.11592314	     -0.23672222	     -0.03581087	      0.08805656	     -0.21851282	     -0.44766092	      0.64306871	     -1.62040363	      0.00000000	      0.00000000	     11.41638673	      6.96363091	      8.28456001	     40.92538149	      4.65267043	     13.54080055	     92.08717881	     85.30024197	     -6.04278666	     21.31323244	     26.48955588	     -0.24410274	      7.25769119	    100.88454427	     77.80377192	    -15.47678116	     16.45110771
      5.35000000	      1.19679446	     -2.57134343	     86.96963529	      0.25580752	      0.93483995	      0.62411686	     -3.05069576	      2.06092116	      4.40959475	      2.66771148	      0.04656035	     16.29102085	    -12.18133281	      0.00000000	     -4.13700708	     -2.08236192	     -2.56167949	      0.90536226	      0.01580155	     25.35099453	     -1.05590161	      0.00000000	     -0.05985540	      0.09769480	     -0.28554963	     -0.11115747	      0.12993408	     -0.30339649	     -0.09833644	      0.23753514	     -0.30339649	     -0.06840874	      0.23753514	     -0.24985593	     -0.05558173	      0.19921924	     -0.23200908	     -0.03420138	      0.15132924	     -0.21416222	     -0.42754117	      1.10514311	     -1.58814139	      0.00000000	      0.00000000	     11.32959300	      6.68308107	      9.17156909	     42.56785262	      3.75990623	     14.85018303	     91.04399804	     84.21865701	     -6.27112043	     22.79096933	     26.47752995	     -0.29599723	      7.30639096	    100.39425557	     77.47248205	    -15.97631222	     16.78152822
      5.36666667	      1.31805815	     -2.55964758	     86.91205396	      0.25530339	      0.93474789	      0.62364914	     -3.02843468	      2.13614929	      3.43473201	      2.79250316	      0.04873837	     16.61822986	    -10.74980179	      0.00000000	     -4.22998813	     -2.13871148	     -2.20001454	      0.87019383	      0.01518775	     25.01556609	     -2.04423926	      0.00000000	     -0.04613991	      0.12922851	     -0.19631708	     -0.08568642	      0.17187391	     -0.20858690	     -0.07580326	      0.31420619	     -0.20858690	     -0.05273330	      0.31420619	     -0.17177744	     -0.04284552	      0.26352277	     -0.15950763	     -0.02636434	      0.20017495	     -0.14723781	     -0.32957275	      1.46185870	     -1.09185670	      0.00000000	      0.00000000	     11.15060200	      6.33109285	      9.77341845	     44.28548965	      2.04130147	     16.67425459	     90.44858258	     81.65229319	     -7.27374028	     23.25589675	     26.78539469	     -0.14881784	      7.22443484	     99.58291708	     78.24966928	    -15.80575030	     16.77516239
      5.38333333	      1.42422264	     -2.47887152	     86.72784691	      0.25510636	      0.93461953	      0.62359478	     -3.08790332	      2.20502368	      2.74918170	      2.92389024	      0.05103151	     16.52991731	     -9.77345593	      0.00000000	     -4.38650142	     -2.17977490	     -1.97836791	      0.86400144	      0.01507967	     24.58286028	     -2.99380605	      0.00000000	     -0.04840207	      0.15346760	     -0.00657068	     -0.08988749	      0.20411190	     -0.00698134	     -0.07951976	      0.37314112	     -0.00698134	     -0.05531873	      0.37314112	     -0.00574934	     -0.04494616	      0.31295112	     -0.00533867	     -0.02765694	      0.23772131	     -0.00492801	     -0.34573116	      1.73605616	     -0.03654412	      0.00000000	      0.00000000	     11.12199912	      5.96936732	      9.75710229	     45.89771727	     -0.24877056	     18.29918264	     90.57864786	     80.27291782	     -7.64754659	     22.91226656	     27.56623250	      0.19912348	      7.04516072	     98.34344444	     78.99820441	    -14.24486226	     16.57545340
      5.40000000	      1.56323986	     -2.42233371	     86.66562596	      0.25493747	      0.93435915	      0.62379179	     -3.17727198	      2.34042767	      2.38228232	      3.00756364	      0.05249189	     15.97885226	     -9.58080314	      0.00000000	     -4.47485402	     -2.28667617	     -2.09260453	      0.90057968	      0.01571808	     24.33427271	     -3.27121806	      0.00000000	     -0.05497366	      0.17906021	      0.19343457	     -0.10209158	      0.23815008	      0.20552424	     -0.09031622	      0.43536700	      0.20552424	     -0.06282939	      0.43536700	      0.16925525	     -0.05104854	      0.36513958	      0.15716559	     -0.03141195	      0.27736427	      0.14507593	     -0.39267135	      2.02556491	      1.07582507	      0.00000000	      0.00000000	     11.19086592	      5.64828324	      9.62539335	     47.40164788	     -2.78135438	     19.65627782	     91.32778699	     80.42219069	     -7.34396540	     22.04423080	     28.68712567	      0.40334788	      7.11759073	     97.07991950	     79.06204223	    -13.24051178	     16.44893390
      5.41666667	      1.67369671	     -2.45213213	     86.53853906	      0.25491506	      0.93400870	      0.62401101	     -3.16937948	      2.44065424	      2.16222553	      3.15259625	      0.05502318	     15.41698085	     -9.33208711	      0.00000000	     -4.47376037	     -2.37314898	     -2.27516429	      0.94764536	      0.01653953	     24.17406476	     -3.52769663	      0.00000000	     -0.05330852	      0.19836798	      0.42984803	     -0.09899926	      0.26382942	      0.45671353	     -0.08758057	      0.48231191	      0.45671353	     -0.06092631	      0.48231191	      0.37611702	     -0.04950229	      0.40451199	      0.34925152	     -0.03046049	      0.30727200	      0.32238602	     -0.38077744	      2.24397829	      2.39068577	      0.00000000	      0.00000000	     11.37189590	      5.31358294	      9.22266633	     48.70007537	     -5.48583551	     20.77272763	     92.53801391	     81.14842359	     -7.15032328	     20.46042284	     29.96488687	      0.48395886	      7.33417571	     95.75041712	     78.64628389	    -11.56363158	     16.28336795
      5.43333333	      1.63187092	     -2.59733012	     86.23842860	      0.25522009	      0.93368527	      0.62417965	     -3.09741418	      2.38174504	      2.12576162	      3.15322059	      0.05503408	     14.87304857	     -8.98236424	      0.00000000	     -4.38216021	     -2.29704047	     -2.66877789	      0.93183757	      0.01626363	     23.92136086	     -3.82215523	      0.00000000	     -0.03556660	      0.19314030	      0.68247666	     -0.06605074	      0.25687660	      0.72513146	     -0.05843237	      0.46960133	      0.72513146	     -0.04064907	      0.46960133	      0.59716708	     -0.03302715	      0.39385171	      0.55451229	     -0.02032276	      0.29917433	      0.51185750	     -0.25404870	      2.18484174	      3.79573047	      0.00000000	      0.00000000	     11.62378806	      4.89228834	      8.17528516	     49.56134980	     -7.75222972	     21.34497399	     93.86572743	     82.96105820	     -7.33248233	     18.14378564	     31.16917519	      0.35216900	      7.52159518	     94.41329301	     76.62628381	     -8.49573009	     15.86039017
      5.45000000	      1.77482240	     -2.64123506	     86.44961546	      0.25499085	      0.93348618	      0.62440599	     -3.18499404	      2.54157891	      2.21958989	      3.06886267	      0.05356176	     14.50097021	     -9.11727021	      0.00000000	     -4.32033285	     -2.47517845	     -2.64176370	      0.94845843	      0.01655372	     23.96598338	     -3.69327243	      0.00000000	     -0.04668362	      0.20845567	      0.81244683	     -0.08669615	      0.27724604	      0.86322476	     -0.07669652	      0.50683912	      0.86322476	     -0.05335471	      0.50683912	      0.71089098	     -0.04335041	      0.42508280	      0.66011305	     -0.02667502	      0.32289783	      0.60933512	     -0.33345644	      2.35809223	      4.51858554	      0.00000000	      0.00000000	     12.01442199	      4.91039297	      7.84744640	     50.25072405	     -9.50204943	     21.43507329	     95.08752370	     84.33007360	     -7.25308512	     16.12595425	     32.36444167	     -0.16718783	      8.22360777	     93.57328517	     74.61774928	     -7.12242297	     15.90649779
      5.46666667	      1.65848773	     -2.80424314	     86.67910057	      0.25497786	      0.93318380	      0.62449051	     -3.24566829	      2.44607318	      2.98132905	      2.70886498	      0.04727861	     14.38053717	     -9.62636932	      0.00000000	     -4.13855611	     -2.39682916	     -2.68424533	      0.89629502	      0.01564330	     24.09747300	     -3.41815129	      0.00000000	     -0.03498015	      0.18637211	      0.87543429	     -0.06496163	      0.24787491	      0.93014893	     -0.05746888	      0.45314515	      0.93014893	     -0.03997881	      0.45314515	      0.76600500	     -0.03248256	      0.38005001	      0.71129036	     -0.01998766	      0.28869040	      0.65657572	     -0.24985968	      2.10827857	      4.86890288	      0.00000000	      0.00000000	     12.38694492	      4.93757435	      7.27183376	     50.62910966	    -10.48673576	     21.37574592	     95.83214097	     85.64432417	     -7.60603814	     13.77885857	     33.30903289	     -1.33444072	      9.24338919	     93.09482944	     71.15869984	     -5.63473703	     15.23966894
